<svg width="16" height="18" viewBox="0 0 16 18" fill="none" xmlns="http://www.w3.org/2000/svg">
<path fill-rule="evenodd" clip-rule="evenodd" d="M4.04167 7.33329C4.04167 5.14717 5.81387 3.37496 8 3.37496C10.1861 3.37496 11.9583 5.14717 11.9583 7.33329C11.9583 9.51942 10.1861 11.2916 8 11.2916C5.81387 11.2916 4.04167 9.51942 4.04167 7.33329ZM8 4.62496C6.50423 4.62496 5.29167 5.83752 5.29167 7.33329C5.29167 8.82906 6.50423 10.0416 8 10.0416C9.49577 10.0416 10.7083 8.82906 10.7083 7.33329C10.7083 5.83752 9.49577 4.62496 8 4.62496Z" fill="#FB246A"/>
<path fill-rule="evenodd" clip-rule="evenodd" d="M0.936969 6.38067C1.23224 2.79849 4.2257 0.041626 7.82003 0.041626H8.17997C11.7743 0.041626 14.7678 2.79849 15.063 6.38067C15.2216 8.30496 14.6272 10.2157 13.405 11.7104L9.41081 16.5953C8.68165 17.487 7.31836 17.487 6.58919 16.5953L2.59497 11.7104C1.37275 10.2157 0.778353 8.30496 0.936969 6.38067ZM7.82003 1.29163C4.87624 1.29163 2.42457 3.54952 2.18274 6.48336C2.05073 8.08489 2.54544 9.67515 3.56265 10.9192L7.55687 15.804C7.7859 16.0841 8.2141 16.0841 8.44313 15.804L12.4373 10.9192C13.4546 9.67515 13.9493 8.08489 13.8173 6.48336C13.5754 3.54952 11.1238 1.29163 8.17997 1.29163H7.82003Z" fill="#FB246A"/>
</svg>
