<svg width="40" height="40" viewBox="0 0 40 40" fill="none" xmlns="http://www.w3.org/2000/svg">
<path d="M30.8334 3.33337C27.6172 3.33337 25 5.95056 25 9.16673C25 9.62735 25.3727 10.0001 25.8334 10.0001C26.294 10.0001 26.6667 9.62735 26.6667 9.16673C26.6666 6.86931 28.5359 5.00001 30.8334 5.00001C31.294 5.00001 31.6667 4.62728 31.6667 4.16665C31.6666 3.70611 31.294 3.33337 30.8334 3.33337Z" fill="black"/>
<path d="M10.4882 10.4883C9.83793 11.1377 9.83793 12.1956 10.4882 12.8451C10.8129 13.1697 11.2401 13.3326 11.6665 13.3326C12.0929 13.3326 12.5202 13.1698 12.8449 12.8451C13.4951 12.1956 13.4951 11.1377 12.8449 10.4883C12.1955 9.83888 11.1376 9.83888 10.4882 10.4883Z" fill="black"/>
<path d="M27.155 29.5117C27.4797 29.8364 27.907 29.9992 28.3334 29.9992C28.7598 29.9992 29.1871 29.8365 29.5118 29.5117C30.162 28.8623 30.162 27.8044 29.5118 27.1549C28.8623 26.5055 27.8044 26.5055 27.155 27.1549C26.5048 27.8044 26.5048 28.8624 27.155 29.5117Z" fill="black"/>
<path d="M37.3167 2.68374C35.0075 0.374596 31.6971 -0.520717 28.4648 0.296471C24.5504 1.28217 21.8171 4.88053 21.6633 9.25131C21.6474 9.70569 21.5031 10.1843 21.2743 10.668C16.6767 7.04467 12.1766 4.97624 9.1405 5.001C7.8805 5.036 6.87276 5.42178 6.14511 6.14944C5.41745 6.8771 5.03159 7.88475 4.99659 9.14553C4.92964 11.6629 6.29347 15.0423 8.67964 18.618C6.59323 19.0299 4.66753 20.0078 3.16761 21.5083C-1.05685 25.7326 -1.05685 32.6069 3.16761 36.8312C5.27987 38.9433 8.05472 39.9998 10.8295 39.9998C13.6042 39.9998 16.3791 38.9433 18.4913 36.8312C19.9925 35.3294 20.9708 33.403 21.3821 31.3161C24.8724 33.6449 28.1762 35.004 30.6722 35.004C30.7341 35.004 30.7951 35.0032 30.8562 35.0015C32.1162 34.9682 33.1239 34.5816 33.8507 33.8548C34.5784 33.1271 34.965 32.1194 34.9984 30.8603C35.0802 27.8142 32.9632 23.3237 29.3327 18.725C29.816 18.4965 30.2945 18.3523 30.7487 18.3365C35.1189 18.1826 38.7182 15.4494 39.7039 11.5345C40.518 8.30147 39.6259 4.99288 37.3167 2.68374ZM17.3146 35.6484C13.7403 39.2226 7.92487 39.2226 4.35065 35.6484C0.776436 32.0742 0.776436 26.2587 4.35065 22.6845C5.79167 21.2435 7.69276 20.3368 9.74261 20.1024C10.1292 20.6274 10.5276 21.151 10.9546 21.6785C6.79784 21.5601 3.3319 24.9933 3.33261 29.1664C3.33261 33.3022 6.6969 36.6664 10.8326 36.6664C14.9683 36.6664 18.3326 33.3021 18.3326 29.1664C18.3326 29.1271 18.3221 29.0862 18.3214 29.0469C18.8487 29.4736 19.372 29.8701 19.8967 30.2565C19.6623 32.3065 18.7555 34.2067 17.3146 35.6484ZM16.3632 27.3843C16.5667 27.9987 16.666 28.5838 16.666 29.1666C16.666 32.3827 14.0488 34.9999 10.8326 34.9999C7.61651 34.9998 4.99933 32.3826 4.99933 29.1665C4.99933 25.9503 7.61651 23.3331 10.8327 23.3331C11.4153 23.3331 12.0005 23.4324 12.615 23.6358C13.1952 24.2812 13.7999 24.9249 14.4371 25.5621C14.4371 25.5621 14.4371 25.5621 14.4371 25.5629C15.0742 26.1986 15.7179 26.8041 16.3632 27.3843ZM33.3302 30.812C33.309 31.6307 33.0868 32.2557 32.6702 32.6716C32.2551 33.0874 31.6301 33.3096 30.8107 33.3308C28.4263 33.4113 24.94 31.8383 21.2798 29.2076C21.2694 29.1994 21.2657 29.1857 21.255 29.178C20.3244 28.5111 19.4162 27.7935 18.5273 27.0453C18.4291 26.9619 18.331 26.8829 18.2331 26.7982C17.335 26.0291 16.458 25.2262 15.6153 24.3838C14.7714 23.5395 13.9661 22.6601 13.1948 21.759C13.1162 21.6678 13.0426 21.5768 12.9651 21.4855C12.2131 20.5927 11.4922 19.6796 10.8211 18.7441C10.8138 18.7339 10.8006 18.7306 10.7928 18.7208C8.1698 15.069 6.60308 11.5908 6.66753 9.19014C6.68948 8.37061 6.91167 7.74405 7.32753 7.32819C7.74339 6.91233 8.37003 6.69014 9.1887 6.66819C11.8607 6.56858 16.0934 8.66569 20.3828 12.0817C19.6971 12.964 18.8262 13.8012 17.9842 14.4693C17.0825 15.1862 16.7961 16.4648 17.3031 17.5097C17.7222 18.3723 18.4278 19.6069 19.41 20.5891C20.3923 21.5714 21.6268 22.2769 22.4895 22.6961C22.8362 22.8645 23.2089 22.9451 23.5775 22.9451C24.3214 22.9451 25.0505 22.618 25.5299 22.015C26.1979 21.1732 27.035 20.3023 27.9171 19.6168C31.3317 23.9078 33.4025 28.1533 33.3302 30.812ZM38.0853 11.1269C37.2828 14.3146 34.31 16.542 30.6894 16.6698C27.7841 16.7715 25.0066 19.9933 24.2246 20.978C23.9902 21.2743 23.5662 21.367 23.2171 21.1969C22.47 20.834 21.4071 20.2294 20.5885 19.4106C19.7698 18.5919 19.1651 17.5291 18.8021 16.782C18.6328 16.4329 18.7248 16.0098 19.021 15.7745C20.0057 14.9925 23.2276 12.2149 23.3293 9.30967C23.4571 5.68827 25.6845 2.71624 28.8714 1.91381C29.5216 1.75022 30.1751 1.66967 30.8188 1.66967C32.8085 1.66967 34.7079 2.43546 36.1362 3.86288C38.0259 5.75342 38.755 8.46905 38.0853 11.1269Z" fill="black"/>
</svg>
