<svg width="38" height="40" viewBox="0 0 38 40" fill="none" xmlns="http://www.w3.org/2000/svg">
<path d="M17.6098 9.8461C17.7733 10.2385 18.2361 10.4313 18.6293 10.268C19.0227 10.1046 19.215 9.64165 19.052 9.24766C18.8894 8.85501 18.4242 8.66243 18.0317 8.82579C17.6372 8.98993 17.4482 9.4518 17.6098 9.8461Z" fill="black"/>
<path d="M34.4815 28.3539H34.4558V27.8259C34.4558 24.0736 31.4004 21.0208 27.6448 21.0208C23.8892 21.0208 20.8338 24.0736 20.8338 27.8259V33.1948C20.8338 36.0856 18.4794 38.4375 15.5853 38.4375C13.4674 38.4375 11.5785 37.1637 10.7619 35.2636C11.5898 34.8326 12.1568 33.9671 12.1568 32.9713V31.7627C13.5363 30.8955 14.4555 29.3616 14.4555 27.6164V24.3104C17.3139 23.9281 18.7441 21.5477 18.8085 21.4379C19.0009 21.1096 18.9288 20.6905 18.6378 20.4454L15.2045 17.5531L25.5331 14.0412C27.412 13.4022 29.5238 13.9061 30.9578 15.2629C31.756 16.0188 32.9723 16.8877 34.5841 17.2464C35.2391 17.3923 36.8794 17.7717 36.8794 16.634V2.55922C36.8794 1.6925 35.9228 1.75461 35.3227 1.81852C33.7534 1.98398 32.3048 2.67805 31.0037 3.88781C29.5592 5.23305 27.4427 5.71953 25.5691 5.06578L13.5374 0.864141C12.3141 0.305547 10.9625 0 9.55586 0C4.35875 0 0 4.34258 0 9.54734C0 10.6499 0.188672 11.7091 0.534375 12.6952C0.544375 12.7312 0.556562 12.7663 0.571406 12.8001C1.32695 14.8768 2.78437 16.6194 4.6557 17.7408V27.6164C4.6557 29.3755 5.58945 30.9204 6.98727 31.7837V32.9713C6.98727 34.2641 7.9425 35.338 9.18469 35.5255C10.1545 38.1871 12.7077 40 15.5854 40C19.341 40 22.3964 36.9472 22.3964 33.1948V27.8259C22.3964 24.9352 24.7509 22.5833 27.6449 22.5833C30.539 22.5833 32.8934 24.9352 32.8934 27.8259V28.3539H32.8677C31.2254 28.3539 29.8892 29.6891 29.8892 31.3303V34.5327C29.8892 34.9642 30.239 35.314 30.6705 35.314H31.443V36.6446C31.443 37.0761 31.7927 37.4259 32.2242 37.4259C32.6557 37.4259 33.0055 37.0761 33.0055 36.6446V35.314H34.2748V36.6446C34.2748 37.0761 34.6246 37.4259 35.0561 37.4259C35.4876 37.4259 35.8373 37.0761 35.8373 36.6446V35.314H36.6788C37.1103 35.314 37.4601 34.9642 37.4601 34.5327V31.3303C37.46 29.6891 36.1238 28.3539 34.4815 28.3539ZM14.4555 22.7296V18.9652L17.0711 21.1686C16.608 21.7049 15.7355 22.4906 14.4555 22.7296ZM31.4513 13.6347V5.54445C32.0072 5.13359 32.4797 4.62961 33.063 4.25234C33.7442 3.81172 34.512 3.50711 35.3169 3.39344V15.7932C34.4929 15.6713 33.7049 15.3534 33.0084 14.9C32.442 14.5313 31.9861 14.042 31.4513 13.6347ZM2.48469 13.2671H5.51406C5.94555 13.2671 6.29531 12.9173 6.29531 12.4859C6.29531 12.0544 5.94555 11.7046 5.51406 11.7046H1.85914C1.73414 11.2602 1.64687 10.8004 1.60078 10.3286H5.43687C5.86836 10.3286 6.21812 9.97883 6.21812 9.54734C6.21812 9.11586 5.86836 8.76609 5.43687 8.76609H1.60078C1.64656 8.29734 1.73305 7.84039 1.8568 7.39875H5.43695C5.86844 7.39875 6.2182 7.04898 6.2182 6.6175C6.2182 6.18602 5.86844 5.83625 5.43695 5.83625H2.48016C3.81992 3.29742 6.48867 1.5625 9.55586 1.5625C12.7595 1.5625 15.7174 3.53719 16.9438 6.49547C17.0884 6.8443 17.4566 7.03281 17.8134 6.96352C17.8645 6.95367 17.9152 6.93852 17.965 6.91781C18.3636 6.75258 18.5527 6.29555 18.3876 5.89695C18.0777 5.14937 17.6716 4.43898 17.1846 3.79273L25.0543 6.54094C26.6497 7.09766 28.3613 7.03562 29.8888 6.42023V12.7327C28.3595 12.0949 26.6384 12.0148 25.0301 12.5617L17.2553 15.2053C17.705 14.593 18.0834 13.9257 18.3765 13.2247C18.5429 12.8266 18.3552 12.369 17.957 12.2026C17.565 12.0387 17.099 12.2283 16.9344 12.6219C15.7429 15.4709 12.9157 17.4205 9.83078 17.5271C6.79688 17.6297 3.90445 15.9495 2.48469 13.2671ZM6.2182 18.4938C8.35805 19.2888 10.7524 19.2905 12.893 18.4961V23.5823V27.6163C12.893 28.9364 12.1208 30.0797 11.0038 30.6193C10.1974 31.0092 9.24617 31.0523 8.40562 30.7458C7.13023 30.2767 6.2182 29.0509 6.2182 27.6163V18.4938ZM8.54977 32.9713V32.4096C9.22 32.5492 9.92492 32.5472 10.5943 32.4027V32.9713C10.5943 33.5343 10.1359 33.9922 9.57242 33.9922C9.00852 33.9921 8.54977 33.5341 8.54977 32.9713ZM35.8975 33.7515H31.4516V31.3303C31.4516 30.5507 32.0868 29.9164 32.8676 29.9164H34.4815C35.2623 29.9164 35.8975 30.5507 35.8975 31.3303V33.7515Z" fill="black"/>
</svg>
