<svg width="40" height="40" viewBox="0 0 40 40" fill="none" xmlns="http://www.w3.org/2000/svg">
<path d="M37.4729 2.3256C35.922 0.825919 33.8798 6.10352e-05 31.7225 6.10352e-05C29.5652 6.10352e-05 27.523 0.825997 25.972 2.32568L25.868 2.42639C23.3435 4.86755 22.6359 8.6502 24.1076 11.8389L26.7136 17.4858V36.5055C26.7136 38.4296 28.2789 39.9949 30.2031 39.9949H32.9105C34.8345 39.9949 36.3998 38.4296 36.3998 36.5055V17.4941L39.1426 11.9284C40.7371 8.69255 40.0662 4.83341 37.4729 2.3256ZM34.8375 36.5054C34.8375 37.568 33.973 38.4326 32.9104 38.4326H30.203C29.1403 38.4326 28.2758 37.568 28.2758 36.5054V24.6062H31.7145V29.641C31.7145 30.0724 32.0641 30.4222 32.4956 30.4222C32.927 30.4222 33.2768 30.0724 33.2768 29.641V24.6062H34.8374V36.5054H34.8375ZM28.2758 23.0439V18.0765H29.4608C29.462 18.0765 29.4631 18.0767 29.4641 18.0767C29.4654 18.0767 29.4666 18.0765 29.4678 18.0765H33.873C33.8742 18.0765 33.8755 18.0767 33.8766 18.0767C33.8778 18.0767 33.8789 18.0765 33.88 18.0765H34.8374V23.0439H28.2758ZM37.7411 11.2379L35.141 16.5143H34.7979L35.4274 12.7369C35.4984 12.3114 35.2109 11.9089 34.7853 11.8379C34.3598 11.7672 33.9573 12.0545 33.8863 12.4801L33.214 16.5143H32.3378V12.6085C32.3378 12.1772 31.9881 11.8273 31.5566 11.8273C31.1252 11.8273 30.7755 12.1771 30.7755 12.6085V16.5143H30.1268L29.4544 12.48C29.3835 12.0547 28.9809 11.7672 28.5554 11.8379C28.1298 11.9089 27.8423 12.3114 27.9133 12.737L28.5429 16.5143H27.9857L25.5259 11.1843C24.3323 8.59786 24.9062 5.52966 26.9541 3.54943L27.0581 3.44873C29.6737 0.919669 33.7713 0.919669 36.3867 3.44873C38.4903 5.48286 39.0346 8.61309 37.7411 11.2379Z" fill="black"/>
<path d="M10.4674 25.0047V21.5598C10.4674 20.9206 10.0812 20.3705 9.53006 20.1289V15.3021C9.53006 14.4367 9.05623 13.6453 8.29342 13.2365L5.79374 11.8971C5.06062 11.5044 4.19695 11.5247 3.4832 11.9521C2.76953 12.3792 2.34351 13.1308 2.34351 13.9626V20.1288C1.79242 20.3704 1.40617 20.9205 1.40617 21.5597V25.0047C0.617733 25.0833 0 25.7503 0 26.5591V37.6514C0 38.9436 1.05125 39.9949 2.34343 39.9949H9.52998C10.8222 39.9949 11.8734 38.9436 11.8734 37.6514V26.5591C11.8735 25.7504 11.2558 25.0834 10.4674 25.0047ZM3.90577 13.9626C3.90577 13.563 4.17148 13.3608 4.28562 13.2924C4.39984 13.2241 4.70358 13.0855 5.05577 13.2741L7.55545 14.6135C7.80975 14.7498 7.96764 15.0136 7.96764 15.302V19.9974H3.90577V13.9626ZM2.96835 21.5598H3.1246H8.74889H8.90514V24.9968H2.96843V21.5598H2.96835ZM10.3112 37.6515C10.3112 38.0822 9.96076 38.4327 9.52998 38.4327H8.12389V32.496C8.12389 32.0646 7.7742 31.7148 7.34272 31.7148C6.91131 31.7148 6.56155 32.0646 6.56155 32.496V38.4327H2.34343C1.91273 38.4327 1.56226 38.0823 1.56226 37.6515V26.5592H10.3112V37.6515Z" fill="black"/>
<path d="M7.89496 28.9752C7.74965 28.8299 7.54894 28.7463 7.34269 28.7463C7.13723 28.7463 6.93574 28.8299 6.79043 28.9752C6.64512 29.1206 6.56152 29.322 6.56152 29.5275C6.56152 29.733 6.64512 29.9345 6.79043 30.0797C6.93574 30.225 7.13723 30.3087 7.34269 30.3087C7.54894 30.3087 7.74965 30.2251 7.89496 30.0797C8.04027 29.9345 8.12386 29.733 8.12386 29.5275C8.12386 29.322 8.04027 29.1205 7.89496 28.9752Z" fill="black"/>
<path d="M22.9658 19.2164H19.3725V11.5611H20.7014C21.1328 11.5611 21.4826 11.2113 21.4826 10.7799C21.4826 10.3485 21.1329 9.99873 20.7014 9.99873H19.3725V9.06138H20.7014C21.1328 9.06138 21.4826 8.71162 21.4826 8.28021C21.4826 7.84881 21.1329 7.49904 20.7014 7.49904H19.3725V6.5617H20.7014C21.1328 6.5617 21.4826 6.21194 21.4826 5.78053C21.4826 5.34913 21.1329 4.99936 20.7014 4.99936H19.3725V4.06202H20.7014C21.1328 4.06202 21.4826 3.71226 21.4826 3.28085C21.4826 2.84945 21.1329 2.49968 20.7014 2.49968H19.3725V1.56234H20.7014C21.1328 1.56234 21.4826 1.21258 21.4826 0.78117C21.4826 0.349765 21.1329 0 20.7014 0H16.4814C16.05 0 15.7002 0.349765 15.7002 0.78117C15.7002 1.21258 16.0499 1.56234 16.4814 1.56234H17.8102V2.49968H16.4813C16.0499 2.49968 15.7002 2.84945 15.7002 3.28085C15.7002 3.71226 16.0498 4.06202 16.4813 4.06202H17.8102V4.99936H16.4813C16.0499 4.99936 15.7002 5.34913 15.7002 5.78053C15.7002 6.21194 16.0498 6.5617 16.4813 6.5617H17.8102V7.49904H16.4813C16.0499 7.49904 15.7002 7.84881 15.7002 8.28021C15.7002 8.71162 16.0498 9.06138 16.4813 9.06138H17.8102V9.99873H16.4813C16.0499 9.99873 15.7002 10.3485 15.7002 10.7799C15.7002 11.2113 16.0498 11.5611 16.4813 11.5611H17.8102V19.2164H14.217C13.7856 19.2164 13.4358 19.5661 13.4358 19.9975V28.7232C13.4358 32.5655 14.4884 36.333 16.48 39.6187C16.6216 39.8522 16.8748 39.9948 17.148 39.9948H20.0347C20.3079 39.9948 20.5612 39.8522 20.7027 39.6187C22.6943 36.333 23.7469 32.5654 23.7469 28.7232V19.9975C23.7469 19.566 23.3972 19.2164 22.9658 19.2164ZM22.1846 28.7231C22.1846 32.1338 21.2883 35.4814 19.5889 38.4326H17.5936C15.8943 35.4813 14.998 32.1338 14.998 28.7231V24.2156H19.7052C20.1366 24.2156 20.4864 23.8659 20.4864 23.4345C20.4864 23.0031 20.1367 22.6533 19.7052 22.6533H14.998V20.7785H22.1845V28.7231H22.1846Z" fill="black"/>
<path d="M33.048 31.8225C32.9027 31.6772 32.7012 31.5936 32.4958 31.5936C32.2903 31.5936 32.0888 31.6771 31.9435 31.8225C31.7982 31.9678 31.7146 32.1693 31.7146 32.3748C31.7146 32.5803 31.7982 32.7818 31.9435 32.927C32.0888 33.0731 32.2903 33.156 32.4958 33.156C32.7012 33.156 32.9027 33.0731 33.048 32.927C33.1933 32.7818 33.2769 32.581 33.2769 32.3748C33.2769 32.1693 33.1933 31.9678 33.048 31.8225Z" fill="black"/>
</svg>
